[PACKET]
codec_type=audio
stream_index=0
pts=0
pts_time=0.000000
dts=0
dts_time=0.000000
duration=128
duration_time=0.002902
size=28
pos=3373
flags=K__
data_hash=CRC32:f592149b
TAG:encoder=Lavc61.19.100 libvorbis
TAG:title=First Stream
[SIDE_DATA]
side_data_type=Strings Metadata
[/SIDE_DATA]
[/PACKET]
[PACKET]
codec_type=audio
stream_index=0
pts=128
pts_time=0.002902
dts=128
dts_time=0.002902
duration=576
duration_time=0.013061
size=59
pos=3373
flags=K__
data_hash=CRC32:3a566e87
[/PACKET]
[PACKET]
codec_type=audio
stream_index=0
pts=704
pts_time=0.015964
dts=704
dts_time=0.015964
duration=619
duration_time=0.014036
size=85
pos=3373
flags=K__
data_hash=CRC32:dab3c9f5
[SIDE_DATA]
side_data_type=Skip Samples
skip_samples=0
discard_padding=405
skip_reason=0
discard_reason=0
[/SIDE_DATA]
[/PACKET]
[PACKET]
codec_type=audio
stream_index=0
pts=1323
pts_time=0.030000
dts=1323
dts_time=0.030000
duration=128
duration_time=0.002902
size=28
pos=6949
flags=K__
data_hash=CRC32:f592149b
TAG:encoder=Lavc61.19.100 libvorbis
TAG:title=Second Stream
[SIDE_DATA]
side_data_type=Strings Metadata
[/SIDE_DATA]
[SIDE_DATA]
side_data_type=New Extradata
[/SIDE_DATA]
[/PACKET]
[PACKET]
codec_type=audio
stream_index=0
pts=1451
pts_time=0.032902
dts=1451
dts_time=0.032902
duration=576
duration_time=0.013061
size=59
pos=6949
flags=K__
data_hash=CRC32:3a566e87
[/PACKET]
[PACKET]
codec_type=audio
stream_index=0
pts=2027
pts_time=0.045964
dts=2027
dts_time=0.045964
duration=619
duration_time=0.014036
size=85
pos=6949
flags=K__
data_hash=CRC32:dab3c9f5
[SIDE_DATA]
side_data_type=Skip Samples
skip_samples=0
discard_padding=405
skip_reason=0
discard_reason=0
[/SIDE_DATA]
[/PACKET]
[STREAM]
codec_name=vorbis
initial_padding=0
DISPOSITION:default=0
DISPOSITION:dub=0
DISPOSITION:original=0
DISPOSITION:comment=0
DISPOSITION:lyrics=0
DISPOSITION:karaoke=0
DISPOSITION:forced=0
DISPOSITION:hearing_impaired=0
DISPOSITION:visual_impaired=0
DISPOSITION:clean_effects=0
DISPOSITION:attached_pic=0
DISPOSITION:timed_thumbnails=0
DISPOSITION:non_diegetic=0
DISPOSITION:captions=0
DISPOSITION:descriptions=0
DISPOSITION:metadata=0
DISPOSITION:dependent=0
DISPOSITION:still_image=0
DISPOSITION:multilayer=0
TAG:encoder=Lavc61.19.100 libvorbis
TAG:title=Second Stream
[/STREAM]
[FORMAT]
filename=
nb_streams=1
nb_programs=0
nb_stream_groups=0
format_name=ogg
start_time=0.000000
duration=0.030000
size=7151
bit_rate=1906933
probe_score=100
[/FORMAT]
